*******************************************************************************
               The Day of the Dead (2007) WEBRip - RadioResearch
*******************************************************************************

-------------------------------------------------------------------------------
                              General Information
-------------------------------------------------------------------------------
Type.................: Movie



Video Format.........: AVI
Video Bitrate........: 1634
Resolution...........: 640 x 480
Color................: 8 bit
FPS..................: 24.000
Source...............: WEB 4:3
Original Format......: NTSC
Genre................: Horror / Thriller
IMDb Rating..........: 6.4
Movie Information....: http://www.imdb.com/title/tt0923671/

-------------------------------------------------------------------------------
                               Post Information
-------------------------------------------------------------------------------
Posted by............: RadioResearch
Posted on............: 5/7/2013

-------------------------------------------------------------------------------
                                 Release Notes
-------------------------------------------------------------------------------
SEEDBOX SUPPORTED!!

AKA El día de los muertos

THE DAY OF THE DEAD Based on true facts, a gang of suburban kids is sport-
killing home-less people just for fun in the streets of Chicago. One day, they 
decide to try a new excitement, by murdering a young Mexican working girl, 
assuming there would be no consequences since she was illegal. Police detective 
Carla Moreno takes the case personally and starts an investigation that leads 
her to a case of racial hatred and police corruption. The father of the victim 
is allowed into the country with a 15 days humanitarian visa, so that he can 
take his daughters body back to Mexico. Detective Moreno is made responsible for 
the father by the Homeland Security Department. Things get complicated for 
detective Moreno, when the body of the girl mysteriously disappears from the 
morgue and the father decides to take investigation in his own hands and maybe 
justice as well.

Dunno why this film is just now coming to light.  Looks pretty good and worth a 
watch.

Don't forget to rate these films on IMDB after you watch them.  That's the only 
way we will ever get an accurate picture of how good they are!

Enjoy!
RadioResearch

General
Complete name                            : G:The Day of the Dead (2007) WEBRip 
- RadioResearchThe Day Of The Dead-{RadioResearch}.avi
Format                                   : AVI
Format/Info                              : Audio Video Interleave
File size                                : 1.16 GiB
Duration                                 : 1h 41mn
Overall bit rate                         : 1 634 Kbps

Video
ID                                       : 0
Format                                   : mp43
Codec ID                                 : mp43
Duration                                 : 1h 41mn
Bit rate                                 : 1 494 Kbps
Width                                    : 640 pixels
Height                                   : 480 pixels
Display aspect ratio                     : 4:3
Frame rate                               : 24.000 fps
Bits/(Pixel*Frame)                       : 0.203
Stream size                              : 1.06 GiB (91%)

Audio
ID                                       : 1
Format                                   : MPEG Audio
Format version                           : Version 1
Format profile                           : Layer 3
Mode                                     : Joint stereo
Mode extension                           : MS Stereo
Codec ID                                 : 55
Codec ID/Hint                            : MP3
Duration                                 : 1h 41mn
Bit rate mode                            : Constant
Bit rate                                 : 128 Kbps
Channel(s)                               : 2 channels
Sampling rate                            : 44.1 KHz
Compression mode                         : Lossy
Stream size                              : 92.9 MiB (8%)
Alignment                                : Aligned on interleaves
Interleave, duration                     : 26 ms (0.63 video frame)
Writing library                          : LAME3.98.2

AVI FILE MD5 HASH  e5beaa9fa5c4d6ef69cda6413f16814d



-------------------------------------------------------------------------------
Generated with Cool NFO Creator - http://fly.to/coolbeans
-------------------------------------------------------------------------------
